<svg width="86" height="18" viewBox="0 0 86 18" fill="none" xmlns="http://www.w3.org/2000/svg">
<path d="M2.547 4.892C2.547 5.3 2.604 5.666 2.718 5.99C2.838 6.308 3.006 6.578 3.222 6.8C3.444 7.022 3.711 7.19 4.023 7.304C4.341 7.418 4.695 7.475 5.085 7.475C5.517 7.475 5.898 7.406 6.228 7.268C6.564 7.124 6.846 6.935 7.074 6.701C7.302 6.467 7.476 6.197 7.596 5.891C7.716 5.585 7.776 5.267 7.776 4.937C7.776 4.535 7.71 4.172 7.578 3.848C7.452 3.518 7.275 3.239 7.047 3.011C6.819 2.783 6.546 2.609 6.228 2.489C5.916 2.363 5.571 2.3 5.193 2.3C4.797 2.3 4.437 2.366 4.113 2.498C3.789 2.624 3.51 2.801 3.276 3.029C3.042 3.257 2.862 3.53 2.736 3.848C2.61 4.166 2.547 4.514 2.547 4.892ZM6.291 8.861C6.423 8.687 6.546 8.522 6.66 8.366C6.774 8.21 6.882 8.054 6.984 7.898C6.654 8.162 6.282 8.363 5.868 8.501C5.454 8.639 5.016 8.708 4.554 8.708C4.068 8.708 3.606 8.627 3.168 8.465C2.736 8.303 2.355 8.066 2.025 7.754C1.695 7.436 1.431 7.049 1.233 6.593C1.041 6.131 0.945 5.603 0.945 5.009C0.945 4.445 1.05 3.917 1.26 3.425C1.47 2.933 1.764 2.504 2.142 2.138C2.52 1.772 2.97 1.484 3.492 1.274C4.014 1.064 4.587 0.958999 5.211 0.958999C5.829 0.958999 6.39 1.061 6.894 1.265C7.398 1.469 7.83 1.754 8.19 2.12C8.55 2.486 8.826 2.924 9.018 3.434C9.216 3.944 9.315 4.508 9.315 5.126C9.315 5.498 9.279 5.852 9.207 6.188C9.141 6.518 9.042 6.845 8.91 7.169C8.784 7.487 8.628 7.805 8.442 8.123C8.256 8.435 8.046 8.756 7.812 9.086L4.671 13.622C4.593 13.736 4.482 13.829 4.338 13.901C4.194 13.967 4.029 14 3.843 14H2.367L6.291 8.861ZM17.9269 11.804C18.2209 12.2 18.5419 12.479 18.8899 12.641C19.2379 12.803 19.6279 12.884 20.0599 12.884C20.9119 12.884 21.5659 12.581 22.0219 11.975C22.4779 11.369 22.7059 10.505 22.7059 9.383C22.7059 8.789 22.6519 8.279 22.5439 7.853C22.4419 7.427 22.2919 7.079 22.0939 6.809C21.8959 6.533 21.6529 6.332 21.3649 6.206C21.0769 6.08 20.7499 6.017 20.3839 6.017C19.8619 6.017 19.4029 6.137 19.0069 6.377C18.6169 6.617 18.2569 6.956 17.9269 7.394V11.804ZM17.8459 6.296C18.2299 5.822 18.6739 5.441 19.1779 5.153C19.6819 4.865 20.2579 4.721 20.9059 4.721C21.4339 4.721 21.9109 4.823 22.3369 5.027C22.7629 5.225 23.1259 5.522 23.4259 5.918C23.7259 6.308 23.9569 6.794 24.1189 7.376C24.2809 7.958 24.3619 8.627 24.3619 9.383C24.3619 10.055 24.2719 10.682 24.0919 11.264C23.9119 11.84 23.6509 12.341 23.3089 12.767C22.9729 13.187 22.5589 13.52 22.0669 13.766C21.5809 14.006 21.0319 14.126 20.4199 14.126C19.8619 14.126 19.3819 14.033 18.9799 13.847C18.5839 13.655 18.2329 13.391 17.9269 13.055V17.087H16.3159V4.883H17.2789C17.5069 4.883 17.6479 4.994 17.7019 5.216L17.8459 6.296ZM27.9267 6.71C28.2147 6.086 28.5687 5.6 28.9887 5.252C29.4087 4.898 29.9217 4.721 30.5277 4.721C30.7197 4.721 30.9027 4.742 31.0767 4.784C31.2567 4.826 31.4157 4.892 31.5537 4.982L31.4367 6.179C31.4007 6.329 31.3107 6.404 31.1667 6.404C31.0827 6.404 30.9597 6.386 30.7977 6.35C30.6357 6.314 30.4527 6.296 30.2487 6.296C29.9607 6.296 29.7027 6.338 29.4747 6.422C29.2527 6.506 29.0517 6.632 28.8717 6.8C28.6977 6.962 28.5387 7.166 28.3947 7.412C28.2567 7.652 28.1307 7.928 28.0167 8.24V14H26.4057V4.883H27.3237C27.4977 4.883 27.6177 4.916 27.6837 4.982C27.7497 5.048 27.7947 5.162 27.8187 5.324L27.9267 6.71ZM36.4362 4.739C37.1022 4.739 37.7022 4.85 38.2362 5.072C38.7702 5.294 39.2262 5.609 39.6042 6.017C39.9822 6.425 40.2702 6.92 40.4682 7.502C40.6722 8.078 40.7742 8.723 40.7742 9.437C40.7742 10.157 40.6722 10.805 40.4682 11.381C40.2702 11.957 39.9822 12.449 39.6042 12.857C39.2262 13.265 38.7702 13.58 38.2362 13.802C37.7022 14.018 37.1022 14.126 36.4362 14.126C35.7642 14.126 35.1582 14.018 34.6182 13.802C34.0842 13.58 33.6282 13.265 33.2502 12.857C32.8722 12.449 32.5812 11.957 32.3772 11.381C32.1792 10.805 32.0802 10.157 32.0802 9.437C32.0802 8.723 32.1792 8.078 32.3772 7.502C32.5812 6.92 32.8722 6.425 33.2502 6.017C33.6282 5.609 34.0842 5.294 34.6182 5.072C35.1582 4.85 35.7642 4.739 36.4362 4.739ZM36.4362 12.875C37.3362 12.875 38.0082 12.575 38.4522 11.975C38.8962 11.369 39.1182 10.526 39.1182 9.446C39.1182 8.36 38.8962 7.514 38.4522 6.908C38.0082 6.302 37.3362 5.999 36.4362 5.999C35.9802 5.999 35.5812 6.077 35.2392 6.233C34.9032 6.389 34.6212 6.614 34.3932 6.908C34.1712 7.202 34.0032 7.565 33.8892 7.997C33.7812 8.423 33.7272 8.906 33.7272 9.446C33.7272 10.526 33.9492 11.369 34.3932 11.975C34.8432 12.575 35.5242 12.875 36.4362 12.875ZM48.7461 7.052C48.4461 6.65 48.1221 6.371 47.7741 6.215C47.4261 6.053 47.0361 5.972 46.6041 5.972C45.7581 5.972 45.1071 6.275 44.6511 6.881C44.1951 7.487 43.9671 8.351 43.9671 9.473C43.9671 10.067 44.0181 10.577 44.1201 11.003C44.2221 11.423 44.3721 11.771 44.5701 12.047C44.7681 12.317 45.0111 12.515 45.2991 12.641C45.5871 12.767 45.9141 12.83 46.2801 12.83C46.8081 12.83 47.2671 12.71 47.6571 12.47C48.0531 12.23 48.4161 11.891 48.7461 11.453V7.052ZM50.3481 0.743V14H49.3941C49.1661 14 49.0221 13.889 48.9621 13.667L48.8181 12.56C48.4281 13.028 47.9841 13.406 47.4861 13.694C46.9881 13.982 46.4121 14.126 45.7581 14.126C45.2361 14.126 44.7621 14.027 44.3361 13.829C43.9101 13.625 43.5471 13.328 43.2471 12.938C42.9471 12.548 42.7161 12.062 42.5541 11.48C42.3921 10.898 42.3111 10.229 42.3111 9.473C42.3111 8.801 42.4011 8.177 42.5811 7.601C42.7611 7.019 43.0191 6.515 43.3551 6.089C43.6911 5.663 44.1021 5.33 44.5881 5.09C45.0801 4.844 45.6321 4.721 46.2441 4.721C46.8021 4.721 47.2791 4.817 47.6751 5.009C48.0771 5.195 48.4341 5.456 48.7461 5.792V0.743H50.3481ZM60.3754 4.883V14H59.4214C59.1934 14 59.0494 13.889 58.9894 13.667L58.8634 12.686C58.4674 13.124 58.0234 13.478 57.5314 13.748C57.0394 14.012 56.4754 14.144 55.8394 14.144C55.3414 14.144 54.9004 14.063 54.5164 13.901C54.1384 13.733 53.8204 13.499 53.5624 13.199C53.3044 12.899 53.1094 12.536 52.9774 12.11C52.8514 11.684 52.7884 11.213 52.7884 10.697V4.883H54.3904V10.697C54.3904 11.387 54.5464 11.921 54.8584 12.299C55.1764 12.677 55.6594 12.866 56.3074 12.866C56.7814 12.866 57.2224 12.755 57.6304 12.533C58.0444 12.305 58.4254 11.993 58.7734 11.597V4.883H60.3754ZM65.7145 14.144C64.9945 14.144 64.4395 13.943 64.0495 13.541C63.6655 13.139 63.4735 12.56 63.4735 11.804V6.224H62.3755C62.2795 6.224 62.1985 6.197 62.1325 6.143C62.0665 6.083 62.0335 5.993 62.0335 5.873V5.234L63.5275 5.045L63.8965 2.228C63.9145 2.138 63.9535 2.066 64.0135 2.012C64.0795 1.952 64.1635 1.922 64.2655 1.922H65.0755V5.063H67.7125V6.224H65.0755V11.696C65.0755 12.08 65.1685 12.365 65.3545 12.551C65.5405 12.737 65.7805 12.83 66.0745 12.83C66.2425 12.83 66.3865 12.809 66.5065 12.767C66.6325 12.719 66.7405 12.668 66.8305 12.614C66.9205 12.56 66.9955 12.512 67.0555 12.47C67.1215 12.422 67.1785 12.398 67.2265 12.398C67.3105 12.398 67.3855 12.449 67.4515 12.551L67.9195 13.316C67.6435 13.574 67.3105 13.778 66.9205 13.928C66.5305 14.072 66.1285 14.144 65.7145 14.144ZM73.1569 4.739C73.8229 4.739 74.4229 4.85 74.9569 5.072C75.4909 5.294 75.9469 5.609 76.3249 6.017C76.7029 6.425 76.9909 6.92 77.1889 7.502C77.3929 8.078 77.4949 8.723 77.4949 9.437C77.4949 10.157 77.3929 10.805 77.1889 11.381C76.9909 11.957 76.7029 12.449 76.3249 12.857C75.9469 13.265 75.4909 13.58 74.9569 13.802C74.4229 14.018 73.8229 14.126 73.1569 14.126C72.4849 14.126 71.8789 14.018 71.3389 13.802C70.8049 13.58 70.3489 13.265 69.9709 12.857C69.5929 12.449 69.3019 11.957 69.0979 11.381C68.8999 10.805 68.8009 10.157 68.8009 9.437C68.8009 8.723 68.8999 8.078 69.0979 7.502C69.3019 6.92 69.5929 6.425 69.9709 6.017C70.3489 5.609 70.8049 5.294 71.3389 5.072C71.8789 4.85 72.4849 4.739 73.1569 4.739ZM73.1569 12.875C74.0569 12.875 74.7289 12.575 75.1729 11.975C75.6169 11.369 75.8389 10.526 75.8389 9.446C75.8389 8.36 75.6169 7.514 75.1729 6.908C74.7289 6.302 74.0569 5.999 73.1569 5.999C72.7009 5.999 72.3019 6.077 71.9599 6.233C71.6239 6.389 71.3419 6.614 71.1139 6.908C70.8919 7.202 70.7239 7.565 70.6099 7.997C70.5019 8.423 70.4479 8.906 70.4479 9.446C70.4479 10.526 70.6699 11.369 71.1139 11.975C71.5639 12.575 72.2449 12.875 73.1569 12.875ZM84.8368 6.386C84.7648 6.518 84.6538 6.584 84.5038 6.584C84.4138 6.584 84.3118 6.551 84.1978 6.485C84.0838 6.419 83.9428 6.347 83.7748 6.269C83.6128 6.185 83.4178 6.11 83.1898 6.044C82.9618 5.972 82.6918 5.936 82.3798 5.936C82.1098 5.936 81.8668 5.972 81.6508 6.044C81.4348 6.11 81.2488 6.203 81.0928 6.323C80.9428 6.443 80.8258 6.584 80.7418 6.746C80.6638 6.902 80.6248 7.073 80.6248 7.259C80.6248 7.493 80.6908 7.688 80.8228 7.844C80.9608 8 81.1408 8.135 81.3628 8.249C81.5848 8.363 81.8368 8.465 82.1188 8.555C82.4008 8.639 82.6888 8.732 82.9828 8.834C83.2828 8.93 83.5738 9.038 83.8558 9.158C84.1378 9.278 84.3898 9.428 84.6118 9.608C84.8338 9.788 85.0108 10.01 85.1428 10.274C85.2808 10.532 85.3498 10.844 85.3498 11.21C85.3498 11.63 85.2748 12.02 85.1248 12.38C84.9748 12.734 84.7528 13.043 84.4588 13.307C84.1648 13.565 83.8048 13.769 83.3788 13.919C82.9528 14.069 82.4608 14.144 81.9028 14.144C81.2668 14.144 80.6908 14.042 80.1748 13.838C79.6588 13.628 79.2208 13.361 78.8608 13.037L79.2388 12.425C79.2868 12.347 79.3438 12.287 79.4098 12.245C79.4758 12.203 79.5598 12.182 79.6618 12.182C79.7698 12.182 79.8838 12.224 80.0038 12.308C80.1238 12.392 80.2678 12.485 80.4358 12.587C80.6098 12.689 80.8198 12.782 81.0658 12.866C81.3118 12.95 81.6178 12.992 81.9838 12.992C82.2958 12.992 82.5688 12.953 82.8028 12.875C83.0368 12.791 83.2318 12.68 83.3878 12.542C83.5438 12.404 83.6578 12.245 83.7298 12.065C83.8078 11.885 83.8468 11.693 83.8468 11.489C83.8468 11.237 83.7778 11.03 83.6398 10.868C83.5078 10.7 83.3308 10.559 83.1088 10.445C82.8868 10.325 82.6318 10.223 82.3438 10.139C82.0618 10.049 81.7708 9.956 81.4708 9.86C81.1768 9.764 80.8858 9.656 80.5978 9.536C80.3158 9.41 80.0638 9.254 79.8418 9.068C79.6198 8.882 79.4398 8.654 79.3018 8.384C79.1698 8.108 79.1038 7.775 79.1038 7.385C79.1038 7.037 79.1758 6.704 79.3198 6.386C79.4638 6.062 79.6738 5.78 79.9498 5.54C80.2258 5.294 80.5648 5.099 80.9668 4.955C81.3688 4.811 81.8278 4.739 82.3438 4.739C82.9438 4.739 83.4808 4.835 83.9548 5.027C84.4348 5.213 84.8488 5.471 85.1968 5.801L84.8368 6.386Z" fill="#161616"/>
</svg>
